<svg width="30" height="29" viewBox="0 0 30 29" fill="none" xmlns="http://www.w3.org/2000/svg">
<path d="M5.37113 26.9079C5.22488 27.7404 6.04611 28.391 6.76985 28.0198L15.001 23.7898L23.2302 28.0198C23.9539 28.391 24.7751 27.7404 24.6289 26.9098L23.0727 18.0412L29.6763 11.7488C30.295 11.1601 29.9763 10.0838 29.1476 9.96759L19.964 8.66261L15.8691 0.549635C15.7911 0.385179 15.668 0.246233 15.5141 0.14894C15.3603 0.0516468 15.182 0 15 0C14.818 0 14.6397 0.0516468 14.4859 0.14894C14.332 0.246233 14.209 0.385179 14.131 0.549635L10.036 8.66449L0.85246 9.96946C0.0255997 10.0857 -0.295019 11.1619 0.321844 11.7507L6.92735 18.0431L5.37113 26.9117V26.9079ZM14.5678 21.7199L7.65671 25.2711L8.95794 17.8518C8.98842 17.681 8.97649 17.5054 8.9232 17.3403C8.86992 17.1752 8.7769 17.0257 8.65232 16.905L3.20367 11.7113L10.801 10.6313C10.9583 10.6076 11.1076 10.546 11.2359 10.452C11.3642 10.3579 11.4679 10.2342 11.5379 10.0913L14.9972 3.23271L18.4603 10.0913C18.5303 10.2342 18.6339 10.3579 18.7623 10.452C18.8906 10.546 19.0398 10.6076 19.1971 10.6313L26.7945 11.7094L21.3458 16.9031C21.221 17.024 21.1278 17.1738 21.0745 17.3393C21.0212 17.5047 21.0094 17.6807 21.0402 17.8518L22.3414 25.2711L15.4303 21.7199C15.2967 21.651 15.1485 21.615 14.9981 21.615C14.8478 21.615 14.6996 21.651 14.566 21.7199H14.5678Z" fill="url(#paint0_linear)"/>
<defs>
<linearGradient id="paint0_linear" x1="12.1154" y1="1.9344e-07" x2="28.2438" y2="10.5862" gradientUnits="userSpaceOnUse">
<stop stop-color="#FE3438"/>
<stop offset="1" stop-color="#FE1C4E"/>
</linearGradient>
</defs>
</svg>
