<svg width="46" height="46" viewBox="0 0 46 46" fill="none" xmlns="http://www.w3.org/2000/svg">
<path fill-rule="evenodd" clip-rule="evenodd" d="M2.875 23C2.875 28.3375 4.99531 33.4564 8.76948 37.2305C12.5436 41.0047 17.6625 43.125 23 43.125C28.3375 43.125 33.4564 41.0047 37.2305 37.2305C41.0047 33.4564 43.125 28.3375 43.125 23C43.125 17.6625 41.0047 12.5436 37.2305 8.76948C33.4564 4.99531 28.3375 2.875 23 2.875C17.6625 2.875 12.5436 4.99531 8.76948 8.76948C4.99531 12.5436 2.875 17.6625 2.875 23V23ZM46 23C46 29.1 43.5768 34.9501 39.2635 39.2635C34.9501 43.5768 29.1 46 23 46C16.9 46 11.0499 43.5768 6.73654 39.2635C2.42321 34.9501 0 29.1 0 23C0 16.9 2.42321 11.0499 6.73654 6.73654C11.0499 2.42321 16.9 0 23 0C29.1 0 34.9501 2.42321 39.2635 6.73654C43.5768 11.0499 46 16.9 46 23V23ZM12.9375 21.5625C12.5563 21.5625 12.1906 21.714 11.921 21.9835C11.6515 22.2531 11.5 22.6188 11.5 23C11.5 23.3812 11.6515 23.7469 11.921 24.0165C12.1906 24.2861 12.5563 24.4375 12.9375 24.4375H29.5924L23.4198 30.6073C23.2861 30.7409 23.1801 30.8996 23.1077 31.0742C23.0354 31.2488 22.9982 31.436 22.9982 31.625C22.9982 31.814 23.0354 32.0012 23.1077 32.1758C23.1801 32.3504 23.2861 32.5091 23.4198 32.6427C23.5534 32.7764 23.7121 32.8824 23.8867 32.9548C24.0613 33.0271 24.2485 33.0643 24.4375 33.0643C24.6265 33.0643 24.8137 33.0271 24.9883 32.9548C25.1629 32.8824 25.3216 32.7764 25.4552 32.6427L34.0802 24.0177C34.2141 23.8842 34.3203 23.7256 34.3928 23.5509C34.4653 23.3763 34.5026 23.1891 34.5026 23C34.5026 22.8109 34.4653 22.6237 34.3928 22.4491C34.3203 22.2744 34.2141 22.1158 34.0802 21.9823L25.4552 13.3573C25.3216 13.2236 25.1629 13.1176 24.9883 13.0452C24.8137 12.9729 24.6265 12.9357 24.4375 12.9357C24.2485 12.9357 24.0613 12.9729 23.8867 13.0452C23.7121 13.1176 23.5534 13.2236 23.4198 13.3573C23.2861 13.4909 23.1801 13.6496 23.1077 13.8242C23.0354 13.9988 22.9982 14.186 22.9982 14.375C22.9982 14.564 23.0354 14.7512 23.1077 14.9258C23.1801 15.1004 23.2861 15.2591 23.4198 15.3927L29.5924 21.5625H12.9375Z" fill="url(#paint0_linear)"/>
<defs>
<linearGradient id="paint0_linear" x1="18.5769" y1="3.16363e-07" x2="44.2422" y2="15.794" gradientUnits="userSpaceOnUse">
<stop stop-color="#FE3438"/>
<stop offset="1" stop-color="#FE1C4E"/>
</linearGradient>
</defs>
</svg>
