<svg width="230" height="230" viewBox="0 0 230 230" fill="none" xmlns="http://www.w3.org/2000/svg">
<g filter="url(#filter0_d)">
<path d="M95 150L155 105L95 60V150ZM115 5C59.8 5 15 49.8 15 105C15 160.2 59.8 205 115 205C170.2 205 215 160.2 215 105C215 49.8 170.2 5 115 5ZM115 185C70.9 185 35 149.1 35 105C35 60.9 70.9 25 115 25C159.1 25 195 60.9 195 105C195 149.1 159.1 185 115 185Z" fill="#FF6700"/>
</g>
<defs>
<filter id="filter0_d" x="0" y="0" width="230" height="230" filterUnits="userSpaceOnUse" color-interpolation-filters="sRGB">
<feFlood flood-opacity="0" result="BackgroundImageFix"/>
<feColorMatrix in="SourceAlpha" type="matrix" values="0 0 0 0 0 0 0 0 0 0 0 0 0 0 0 0 0 0 127 0"/>
<feOffset dy="10"/>
<feGaussianBlur stdDeviation="7.5"/>
<feColorMatrix type="matrix" values="0 0 0 0 0.862745 0 0 0 0 0.337255 0 0 0 0 0.321569 0 0 0 0.7 0"/>
<feBlend mode="normal" in2="BackgroundImageFix" result="effect1_dropShadow"/>
<feBlend mode="normal" in="SourceGraphic" in2="effect1_dropShadow" result="shape"/>
</filter>
<linearGradient id="paint0_linear" x1="95.7692" y1="5" x2="207.357" y2="73.6695" gradientUnits="userSpaceOnUse">
<stop stop-color="#FE1C4E"/>
<stop offset="1" stop-color="#FE3438"/>
</linearGradient>
</defs>
</svg>
