<svg width="32" height="32" viewBox="0 0 32 32" fill="none" xmlns="http://www.w3.org/2000/svg">
<path d="M0 16C0 24.8366 7.16344 32 16 32C24.8366 32 32 24.8366 32 16C32 7.16344 24.8366 0 16 0C7.16344 0 0 7.16344 0 16Z" fill="#0088CC"/>
<path fill-rule="evenodd" clip-rule="evenodd" d="M15.0944 21.4H16.0944C16.0944 21.4 16.3944 21.35 16.5444 21.2C16.6944 21.05 16.6944 20.75 16.6944 20.75C16.6944 20.75 16.6944 19.45 17.2944 19.25C17.8944 19.05 18.6944 20.55 19.4944 21.1C20.0944 21.55 20.5444 21.45 20.5444 21.45L22.7444 21.4C22.7444 21.4 23.8944 21.35 23.3444 20.4C23.2944 20.35 23.0444 19.75 21.6944 18.5C20.2944 17.2 20.4944 17.45 22.1444 15.2C23.1444 13.85 23.5444 13.05 23.4444 12.65C23.3444 12.3 22.5944 12.4 22.5944 12.4H20.0944C20.0944 12.4 19.8944 12.35 19.7944 12.45C19.6444 12.55 19.5944 12.7 19.5944 12.7C19.5944 12.7 19.1944 13.75 18.6944 14.65C17.5944 16.5 17.1444 16.6 16.9944 16.5C16.5944 16.25 16.6944 15.4 16.6944 14.85C16.6944 13.05 16.9944 12.3 16.1444 12.1C15.8944 12.05 15.6944 12 14.9944 12C14.0944 12 13.3444 12 12.9444 12.2C12.6444 12.35 12.4444 12.65 12.5944 12.65C12.7444 12.65 13.1444 12.75 13.3444 13C13.5444 13.45 13.5444 14.2 13.5444 14.2C13.5444 14.2 13.6944 16.35 13.1944 16.6C12.8444 16.8 12.3944 16.4 11.3944 14.7C10.8944 13.85 10.4944 12.85 10.4944 12.85C10.4944 12.85 10.4444 12.65 10.2944 12.55C10.1444 12.45 9.89444 12.4 9.89444 12.4H7.54444C7.54444 12.4 7.19444 12.4 7.04444 12.55C6.94444 12.7 7.04444 12.95 7.04444 12.95C7.04444 12.95 8.89444 17.25 10.9944 19.45C12.9444 21.55 15.0944 21.4 15.0944 21.4Z" fill="white"/>
</svg>
