<svg width="583" height="632" viewBox="0 0 583 632" fill="none" xmlns="http://www.w3.org/2000/svg">
<path fill-rule="evenodd" clip-rule="evenodd" d="M339.327 69.463C348.099 59.1669 354.035 46.5487 353.043 32.4098C350.185 -8.32845 293.476 0.633445 282.445 21.1946C271.414 41.7558 272.725 93.9109 286.981 97.5858C292.667 99.0513 304.779 95.4613 317.106 88.0312L309.368 142.771H355.055L339.327 69.463Z" fill="#D0A990"/>
<path fill-rule="evenodd" clip-rule="evenodd" d="M325.111 47.3372C326.606 46.3104 328.391 45.6868 330.308 45.6868C335.565 45.6868 339.826 50.3743 339.826 55.2048C339.826 60.2301 337.453 64.1157 334.064 65.7641C335.874 69.3028 337.694 71.8709 339.826 72.3374C348.053 71.5051 358.862 51.0559 358.862 34.2651C358.862 15.8866 344.239 0 316.983 0C292.485 0 283.196 10.101 282.718 19.0361C293.215 21.9213 311.559 23.0322 337.922 22.8434V24.747L315.079 26.6506L311.272 38.0723C317.329 37.6201 321.657 41.7748 325.111 47.3372Z" fill="#191847"/>
<path d="M374.091 632C293.138 632 227.513 569.358 227.513 492.084C227.513 414.811 293.138 352.169 374.091 352.169C455.044 352.169 520.67 414.811 520.67 492.084C520.67 569.358 455.044 632 374.091 632Z" fill="#C5CFD6"/>
<path fill-rule="evenodd" clip-rule="evenodd" d="M97.0977 610.413C121.488 556.43 139.127 509.423 146.208 484.622C158.331 442.157 167.553 404.791 169.884 390.836C175.443 357.56 127.125 355.622 120.739 372.16C111.072 397.191 94.1973 479.43 73.9206 603.65L97.0977 610.413ZM380.015 440.998C357.636 432.153 279.268 404.47 241.472 396.639C230.61 394.389 220.083 392.298 210.186 390.409C180.768 384.793 165.526 437.865 193.86 441.942C264.421 452.098 364.454 462.585 373.014 463.762C385.012 465.411 394.079 446.557 380.015 440.998Z" fill="#D0A990"/>
<path fill-rule="evenodd" clip-rule="evenodd" d="M192.13 375.805L313.176 314.185V300.771H298.78C181.674 330.612 121.833 349.735 119.257 358.142C119.229 358.232 119.204 358.323 119.181 358.414C119.122 358.491 119.064 358.569 119.007 358.647C95.799 390.565 81.8999 546.389 77.3379 558.056L121.81 564.691C138.821 501.609 193.248 457.663 191.802 382.111C192.192 379.894 192.291 377.793 192.13 375.805Z" fill="#1F28CF"/>
<path fill-rule="evenodd" clip-rule="evenodd" d="M303.118 412.4C314.194 410.183 324.393 408.204 333.12 406.674C389.493 396.786 405.932 366.61 396.212 300.771H292.347C275.38 305.645 187.206 342.622 141.457 362.289C111.178 375.306 120.723 422.23 137.87 434.442C137.963 435.191 138.272 435.7 138.821 435.928C231.06 474.157 304.029 454.098 328.405 460.508L339.679 424.941L303.118 412.4Z" fill="#2B44FF"/>
<path fill-rule="evenodd" clip-rule="evenodd" d="M372.363 435.345C378.407 435.923 382.697 436.83 385.233 438.068C388.319 439.573 392.57 442.282 397.988 446.197C396.242 449.777 380.554 481.944 350.921 542.699C341.408 541.163 337.638 537.532 339.612 531.807C341.586 526.082 343.179 521.302 344.389 517.469L346.27 462.863C346.306 461.813 347.187 460.99 348.238 461.026C348.256 461.027 348.274 461.028 348.291 461.029L356.691 461.557C361.465 457.693 364.614 454.198 366.139 451.071C367.378 448.53 368.063 444.521 368.195 439.044L368.194 439.044C368.245 436.941 369.99 435.278 372.092 435.329C372.182 435.331 372.273 435.336 372.363 435.345Z" fill="#E4E4E4"/>
<path fill-rule="evenodd" clip-rule="evenodd" d="M108.198 600.404C110.328 606.089 111.392 610.343 111.392 613.165C111.392 616.598 110.821 621.607 109.677 628.193C105.695 628.193 69.9054 628.193 2.30946 628.193C-0.480644 618.969 1.12996 613.989 7.14127 613.254C13.1526 612.518 18.1463 611.854 22.1224 611.261L72.0257 589.014C72.9859 588.586 74.1114 589.018 74.5394 589.978C74.5468 589.994 74.5538 590.011 74.5607 590.027L77.7684 597.809C83.3333 600.405 87.8554 601.703 91.3346 601.703C94.1614 601.703 98.0652 600.562 103.046 598.278L103.046 598.278C104.957 597.402 107.217 598.241 108.094 600.153C108.131 600.235 108.166 600.319 108.198 600.404Z" fill="#E4E4E4"/>
<path fill-rule="evenodd" clip-rule="evenodd" d="M199.169 262.949L138.447 307.539C121.978 311.982 108.218 317.512 97.1688 324.126C94.5587 326.504 91.404 331.321 102.229 330.488C113.054 329.656 124.477 329.267 125.971 332.959C127.464 336.651 120.914 341.067 123.933 346.048C125.946 349.37 135.455 341.042 152.461 321.066L212.592 296.131L199.169 262.949ZM473.956 244.377L440.431 250.447C479.341 327.659 500.182 368.484 502.952 372.922C509.186 382.908 502.893 400.899 500.519 410.39C514.313 413.857 509.215 392.909 526.666 397.569C542.595 401.822 555.982 412.257 571.14 398.764C573.004 397.105 574.439 391.843 568.233 389.022C552.771 381.997 529.975 368.948 526.329 363.973C521.356 357.189 503.899 317.323 473.956 244.377Z" fill="#D0A990"/>
<path fill-rule="evenodd" clip-rule="evenodd" d="M185.023 267.796C177.211 267.236 168.712 268.53 159.601 271.6C155.118 273.11 152.708 277.969 154.219 282.453C155.096 285.057 157.103 286.961 159.51 287.804C157.766 289.076 156.007 290.341 154.233 291.599L169.552 322.871C234.014 290.73 294.602 266.498 322.21 213.436C331.476 195.627 328.34 135.134 329.225 113.127L308.865 104.778C280.485 163.441 242.077 219.721 185.023 267.796Z" fill="#69A1AC"/>
<path fill-rule="evenodd" clip-rule="evenodd" d="M400.742 317.732C340.895 324.306 293.79 324.306 259.425 317.732C255.167 316.917 255.354 298.564 257.328 293.551C288.076 215.493 308.302 158.35 308.302 104.133C313.943 107.08 323.817 107.521 337.922 105.458C375.831 161.331 393.256 225.438 400.742 317.732Z" fill="#191847"/>
<path fill-rule="evenodd" clip-rule="evenodd" d="M411.862 326.961C413.894 325.048 414.954 322.182 414.433 319.228L413.441 313.604C412.769 309.793 409.674 307.017 406.019 306.583C405.38 303.727 404.829 300.891 404.374 298.074C400.531 274.287 407.097 250.962 406.789 228.057C437.399 254.174 464.859 299.269 489.169 363.345L525.122 352.765C523.75 347.669 522.329 342.635 520.859 337.664C525.009 335.306 529.858 324.501 526.368 322.693C522.764 320.826 518.945 319.512 514.924 318.738C481.959 219.447 428.05 146.831 353.198 100.892H346.576L331.548 100.892C337.923 185.185 249.881 369.215 280.451 526.384C336.956 539.002 417.623 499.742 496.146 531.108C493.224 467.815 434.696 393.46 411.862 326.961V326.961Z" fill="#89C5CC"/>
<path fill-rule="evenodd" clip-rule="evenodd" d="M345.336 102.795L355.157 132.997L335.379 155.638L353.253 173.43L310.011 247.47L362.891 173.578L345.336 155.638L362.891 135.63L345.336 102.795Z" fill="black" fill-opacity="0.1"/>
<path fill-rule="evenodd" clip-rule="evenodd" d="M322.694 276.024C326.899 276.024 330.308 272.615 330.308 268.41C330.308 264.204 326.899 260.795 322.694 260.795C318.488 260.795 315.079 264.204 315.079 268.41C315.079 272.615 318.488 276.024 322.694 276.024ZM313.176 319.807C317.381 319.807 320.79 316.398 320.79 312.193C320.79 307.987 317.381 304.578 313.176 304.578C308.97 304.578 305.561 307.987 305.561 312.193C305.561 316.398 308.97 319.807 313.176 319.807ZM311.272 363.59C315.477 363.59 318.886 360.181 318.886 355.976C318.886 351.771 315.477 348.361 311.272 348.361C307.067 348.361 303.657 351.771 303.657 355.976C303.657 360.181 307.067 363.59 311.272 363.59Z" fill="black" fill-opacity="0.4"/>
</svg>
